<svg width="146" height="37" viewBox="0 0 146 37" fill="none" xmlns="http://www.w3.org/2000/svg">
<path d="M25.9877 23.5634C25.1215 26.3625 22.5227 28.882 17.9026 28.882C12.7051 28.882 8.37382 24.683 8.37382 18.8045C8.37382 12.926 12.7051 8.72698 17.9026 8.72698C22.2339 8.72698 24.8327 11.2464 25.6991 14.0457L34.3615 13.4858C32.629 6.76748 26.5651 0.888916 17.9026 0.888916C8.08507 0.888916 0 8.72698 0 18.8045C0 28.882 8.08507 36.7202 17.9026 36.7202C26.8538 36.7202 32.9177 30.8416 34.6502 24.1232L25.9877 23.5634Z" fill="#A0A0A0"/>
<path d="M36.3813 23.5633C36.3813 31.1214 42.4449 37 49.9526 37C57.4602 37 63.5238 31.1214 63.5238 23.5633C63.5238 16.0052 57.4602 10.1266 49.9526 10.1266C42.4449 10.1266 36.3813 16.0052 36.3813 23.5633ZM55.7275 23.5633C55.7275 27.4822 53.1287 30.0017 49.9526 30.0017C46.7764 30.0017 44.1776 27.4822 44.1776 23.5633C44.1776 19.6443 46.7764 17.1248 49.9526 17.1248C53.1287 17.1248 55.7275 19.6443 55.7275 23.5633ZM42.4449 7.32729H57.7489V1.44873H42.4449V7.32729Z" fill="#A0A0A0"/>
<path d="M65.9685 36.4404H90.8012V28.6023H74.3422V1.16895H65.9685V36.4404Z" fill="#A0A0A0"/>
<path d="M110.436 36.4403H116.212V20.7641C116.212 14.6056 111.592 10.1267 105.238 10.1267C98.3088 10.1267 94.555 13.7658 93.6887 18.8046L101.485 19.3644C101.485 19.3644 102.063 16.8451 104.95 16.8451C106.971 16.8451 108.415 18.2447 108.415 20.7641C96.2874 20.7641 92.5339 24.4032 92.5339 29.442C92.5339 33.641 95.71 36.7202 101.485 36.7202C106.105 36.7202 109.281 33.9208 109.281 33.9208L110.436 36.4403ZM108.415 26.3626C108.415 29.1619 106.394 31.1215 103.506 31.1215C101.485 31.1215 100.33 30.0018 100.33 28.6022C100.33 26.6427 101.774 25.243 108.415 25.243V26.3626Z" fill="#A0A0A0"/>
<path d="M119.035 36.4404H124.81L125.965 33.9209C125.965 33.9209 128.853 36.7203 133.473 36.7203C140.114 36.7203 145.889 31.1216 145.889 23.5635C145.889 16.0053 140.114 10.4067 133.473 10.4067C129.43 10.4067 126.831 12.6461 126.831 12.6461V1.16895H119.035V36.4404ZM132.317 29.722C129.141 29.722 126.542 27.2025 126.542 23.5635C126.542 19.9243 129.141 17.4049 132.317 17.4049C135.494 17.4049 138.093 19.9243 138.093 23.5635C138.093 27.2025 135.494 29.722 132.317 29.722Z" fill="#A0A0A0"/>
</svg>
