<svg width="301" height="37" viewBox="0 0 301 37" fill="none" xmlns="http://www.w3.org/2000/svg">
<path d="M29.6491 21.2385H0V35.9269H29.6491V21.2385Z" fill="#A0A0A0"/>
<path d="M29.6491 1.9563H0V16.3402H29.6491V1.9563Z" fill="#A0A0A0"/>
<path d="M59.2985 35.927V21.2386H41.5499V35.927H35.6005V1.9563H41.5499V16.3385H59.2985V1.9563H65.2496V35.927H59.2985Z" fill="#A0A0A0"/>
<path d="M85.5689 37C75.5822 37 69.9489 30.2676 69.9489 22.6178V15.222C69.9489 7.51992 75.5891 0.888916 85.5689 0.888916C95.5484 0.888916 101.189 7.51992 101.189 15.222V22.6178C101.189 30.2676 95.5484 37 85.5689 37ZM95.1933 15.1729C95.1933 10.124 91.8821 5.99204 85.5689 5.99204C79.2555 5.99204 75.9445 10.124 75.9445 15.1729V22.6703C75.8809 23.9212 76.0885 25.171 76.5533 26.3367C77.0181 27.5023 77.7294 28.5568 78.6401 29.4302C79.5506 30.3037 80.6394 30.976 81.8343 31.4021C83.029 31.8284 84.302 31.9986 85.5689 31.9018C86.8356 31.9986 88.1088 31.8284 89.3035 31.4021C90.4981 30.976 91.587 30.3037 92.4977 29.4302C93.4082 28.5568 94.1195 27.5023 94.5843 26.3367C95.0491 25.171 95.2567 23.9212 95.1933 22.6703V15.1729Z" fill="#A0A0A0"/>
<path d="M105.884 35.927V1.9563H111.833V30.8255H131.755V35.9252L105.884 35.927Z" fill="#A0A0A0"/>
<path d="M143.756 7.05773V35.927H137.807V7.05773H126.061V1.95801H155.502V7.05773H143.756Z" fill="#A0A0A0"/>
<path d="M166.677 30.8273H186.65V35.927H157.725V33.8865L178.164 7.05778H158.709V1.95801H187.012V3.99857L166.677 30.8273Z" fill="#A0A0A0"/>
<path d="M224.993 35.927V9.55687L223.285 13.8918L213.353 35.927H209.062L199.225 13.885L197.517 9.5501V35.9202H191.928V1.9563H200.207L209.779 24.291L211.383 28.4736L212.986 24.3417L222.45 1.9563H230.69V35.9252L224.993 35.927Z" fill="#A0A0A0"/>
<path d="M261.318 35.927L257.955 27.3586H243.416L240.155 35.927H234.051L247.918 1.95801H253.505L267.581 35.927H261.318ZM250.556 8.94606L245.175 22.7682H256.093L250.556 8.94606Z" fill="#A0A0A0"/>
<path d="M295.677 35.927L279.541 15.7293L276.686 11.8546V35.9287H270.891V1.9563H276.121L291.8 22.3063L294.593 26.1318V1.9563H300.388V35.9252L295.677 35.927Z" fill="#A0A0A0"/>
</svg>
