<svg width="234" height="37" viewBox="0 0 234 37" fill="none" xmlns="http://www.w3.org/2000/svg">
<path fill-rule="evenodd" clip-rule="evenodd" d="M95.6539 32.409V19.8796C95.6539 16.5048 93.6864 13.6848 90.2671 13.6848C86.8473 13.6848 84.693 16.5048 84.693 19.8796V32.409H79.8684V9.56963H84.365L84.693 12.6213C86.0043 10.1245 88.7213 9.2002 91.1571 9.2002C94.1081 9.2002 97.1057 10.4019 98.4174 13.7768C100.291 10.4019 103.195 9.24644 106.333 9.24644C112.704 9.24644 116.124 13.2224 116.124 19.7872V32.409H111.252V19.7872C111.252 16.4123 109.566 13.7305 106.146 13.7305C102.727 13.7305 100.525 16.5048 100.525 19.8796V32.409H95.6539Z" fill="#A0A0A0"/>
<path fill-rule="evenodd" clip-rule="evenodd" d="M125.728 21.0361C125.728 25.1049 128.398 28.4337 132.8 28.4337C137.251 28.4337 139.921 25.1049 139.921 21.0361C139.921 17.0139 137.017 13.5461 132.8 13.5461C128.398 13.5461 125.728 17.0139 125.728 21.0361ZM144.792 21.0361C144.792 27.7864 140.062 32.8721 132.8 32.8721C125.587 32.8721 120.903 27.7864 120.903 21.0361C120.903 14.3326 125.635 9.15405 132.8 9.15405C139.921 9.15405 144.792 14.3326 144.792 21.0361Z" fill="#A0A0A0"/>
<path fill-rule="evenodd" clip-rule="evenodd" d="M164.655 15.211C162.828 13.5465 160.861 13.0841 158.566 13.0841C155.615 13.0383 153.648 14.0088 153.648 15.8121C153.695 17.7078 155.709 18.4476 158.66 18.725C162.922 19.0945 168.496 20.0192 168.45 25.891C168.403 30.1443 164.608 33.1035 158.613 33.1035C154.866 33.1035 151.118 32.2711 148.073 28.8963L150.602 25.5211C152.758 27.8791 155.99 28.8501 158.706 28.8963C161.002 28.8963 163.578 28.0639 163.625 25.9372C163.672 23.9027 161.705 23.1171 158.285 22.7935C153.929 22.3773 148.917 20.9902 148.87 15.9508C148.87 10.9114 154.163 9.01611 158.472 9.01611C162.032 9.01611 164.796 9.80168 167.372 12.0673L164.655 15.211Z" fill="#A0A0A0"/>
<path fill-rule="evenodd" clip-rule="evenodd" d="M176.695 20.9902C176.695 25.7059 180.068 28.5727 184.19 28.5727C194.167 28.5727 194.167 13.4545 184.19 13.4545C180.068 13.4545 176.695 16.3207 176.695 20.9902ZM191.825 9.61677H196.509C196.509 17.1992 196.509 24.8275 196.509 32.41H191.919L191.684 28.7114C190.139 31.6239 186.578 33.0111 183.721 33.0111C176.976 33.0573 171.871 28.7573 171.871 20.9902C171.871 13.362 177.164 9.10815 183.815 9.10815C187.094 9.10815 190.232 10.634 191.684 13.2233L191.825 9.61677Z" fill="#A0A0A0"/>
<path fill-rule="evenodd" clip-rule="evenodd" d="M203.068 32.4097H207.893V9.52398H203.068V32.4097ZM208.502 2.91296C208.502 6.84265 202.506 6.84265 202.506 2.91296C202.506 -0.970987 208.502 -0.970987 208.502 2.91296Z" fill="#A0A0A0"/>
<path fill-rule="evenodd" clip-rule="evenodd" d="M233.984 29.4508C231.408 31.9478 228.55 33.011 225.224 33.011C218.573 33.011 213.045 28.8964 213.045 21.0366C213.045 13.1771 218.526 9.06201 225.224 9.06201C228.41 9.06201 231.08 10.033 233.562 12.4373L230.471 15.6273C229.019 14.2401 227.098 13.5933 225.271 13.5933C221.103 13.5933 217.87 16.5058 217.87 21.0366C217.87 25.8447 221.243 28.3878 225.224 28.3878C227.192 28.3878 229.206 27.7867 230.705 26.261L233.984 29.4508Z" fill="#A0A0A0"/>
<path fill-rule="evenodd" clip-rule="evenodd" d="M9.06068 35.8004L0.246643 27.1003C-0.0822144 26.7761 -0.0822144 26.2505 0.246643 25.9262L9.06068 17.2262C9.48043 16.812 10.1611 16.812 10.5808 17.2262L19.23 25.763C19.6497 26.1772 19.6497 26.8491 19.23 27.2633L10.5808 35.8004C10.1611 36.2146 9.48043 36.2146 9.06068 35.8004Z" fill="#A0A0A0"/>
<path fill-rule="evenodd" clip-rule="evenodd" d="M21.3182 23.7033L12.669 15.1665C12.2493 14.7522 12.2493 14.0804 12.669 13.6661L21.3182 5.12933C21.7379 4.71503 22.4186 4.71503 22.8383 5.12933L31.4874 13.6661C31.9073 14.0804 31.9073 14.7522 31.4874 15.1665L22.8383 23.7033C22.4186 24.1181 21.7379 24.1181 21.3182 23.7033Z" fill="#A0A0A0"/>
<path fill-rule="evenodd" clip-rule="evenodd" d="M33.7189 35.6624L25.0697 27.1256C24.6499 26.7113 24.6499 26.0395 25.0697 25.6252L33.7189 17.0884C34.1386 16.6737 34.8193 16.6737 35.239 17.0884L43.8881 25.6252C44.3078 26.0395 44.3078 26.7113 43.8881 27.1256L35.239 35.6624C34.8193 36.0767 34.1386 36.0767 33.7189 35.6624Z" fill="#A0A0A0"/>
<path fill-rule="evenodd" clip-rule="evenodd" d="M45.9783 23.5637L37.3292 15.0269C36.9095 14.6126 36.9095 13.9408 37.3292 13.5265L45.9783 4.98966C46.3981 4.57539 47.0787 4.57539 47.4985 4.98966L56.1476 13.5265C56.5673 13.9408 56.5673 14.6126 56.1476 15.0269L47.4985 23.5637C47.0787 23.978 46.3981 23.978 45.9783 23.5637Z" fill="#A0A0A0"/>
<path fill-rule="evenodd" clip-rule="evenodd" d="M58.2027 35.6966L49.5536 27.1596C49.1339 26.7453 49.1339 26.0735 49.5536 25.6592L58.2027 17.1225C58.6225 16.7082 59.3031 16.7082 59.7228 17.1225L68.372 25.6592C68.7917 26.0735 68.7917 26.7453 68.372 27.1596L59.7228 35.6966C59.3031 36.1109 58.6225 36.1109 58.2027 35.6966Z" fill="#A0A0A0"/>
</svg>
